<svg width="600" height="430" viewBox="0 0 600 430" xmlns="http://www.w3.org/2000/svg"><path d="M120 60 Q280 20 420 55 Q520 85 540 180 Q555 280 470 350 Q360 415 230 385 Q110 355 80 250 Q55 140 120 60Z" fill="rgba(34,211,238,0.04)" stroke="rgba(34,211,238,0.35)" stroke-width="1.5" /><path d="M150 120 Q300 90 430 130" fill="none" stroke="rgba(148,163,184,0.25)" stroke-width="1" stroke-dasharray="4 4" /><path d="M130 220 Q300 190 480 230" fill="none" stroke="rgba(148,163,184,0.25)" stroke-width="1" stroke-dasharray="4 4" /><circle cx="270" cy="170" r="10" fill="#EF4444" opacity="0.9" /><circle cx="270" cy="170" r="22" fill="none" stroke="#EF4444" stroke-width="1.5" opacity="0.5" /><circle cx="270" cy="170" r="36" fill="none" stroke="#EF4444" stroke-width="1" opacity="0.25" /><text x="270" y="140" fill="#FCA5A5" font-size="12" text-anchor="middle" font-family="JetBrains Mono">震中 M7.7 · 深10km</text><circle cx="240" cy="200" r="58" fill="rgba(239,68,68,0.22)" stroke="#EF4444" stroke-width="2" /><text x="240" y="197" fill="#FCA5A5" font-size="15" text-anchor="middle" font-weight="bold">实皆省</text><text x="240" y="215" fill="#FCA5A5" font-size="11" text-anchor="middle">频次高 · 严重度极高</text><circle cx="330" cy="250" r="72" fill="rgba(249,115,22,0.18)" stroke="#F97316" stroke-width="2" /><text x="330" y="246" fill="#FDBA74" font-size="15" text-anchor="middle" font-weight="bold">曼德勒</text><text x="330" y="264" fill="#FDBA74" font-size="11" text-anchor="middle">Sky Villa 倒塌 · 呼救集中</text><circle cx="470" cy="110" r="36" fill="rgba(245,158,11,0.16)" stroke="#F59E0B" stroke-width="1.5" /><text x="470" y="107" fill="#FCD34D" font-size="13" text-anchor="middle" font-weight="bold">瑞丽</text><text x="470" y="123" fill="#FCD34D" font-size="10" text-anchor="middle">跨境震感</text><circle cx="430" cy="340" r="26" fill="rgba(100,116,139,0.18)" stroke="#64748B" stroke-width="1.5" /><text x="430" y="338" fill="#94A3B8" font-size="12" text-anchor="middle" font-weight="bold">曼谷</text><text x="430" y="353" fill="#94A3B8" font-size="10" text-anchor="middle">在建楼坍塌</text><text x="20" y="412" fill="rgba(148,163,184,0.8)" font-size="11" font-family="JetBrains Mono">面积 = 出现频次  ·  颜色深度 = 严重程度权重  ·  NER 地名实时聚合</text></svg>